<svg width="162" height="170" viewBox="0 0 162 170" fill="none" xmlns="http://www.w3.org/2000/svg">
<path fill-rule="evenodd" clip-rule="evenodd" d="M87.9166 11.4783C86.3333 10.595 84.2886 9.99661 81.0051 10C77.7152 10.0034 75.6662 10.6026 74.0805 11.486C72.4393 12.4002 70.9041 13.8306 68.9254 16.1898C59.4366 29.4757 45.685 54.112 33.8287 77.6002C27.8991 89.347 22.491 100.713 18.379 110.097C14.1866 119.664 11.5555 126.702 10.8876 130.042C9.44019 137.279 12.2128 145.148 17.9003 151.143C23.5631 157.112 31.6591 160.719 40.0638 159.878C48.026 159.082 56.5738 153.797 63.8323 147.701C68.2845 143.962 71.9596 140.169 74.3464 137.537C56.6909 117.522 35.7519 68.674 76.9456 63.2979C79.6491 62.9451 82.3508 62.9451 85.0542 63.2979C126.248 68.674 105.309 117.522 87.6535 137.537C90.0402 140.169 93.7154 143.962 98.1676 147.701C105.426 153.797 113.974 159.082 121.936 159.878C130.341 160.719 138.437 157.112 144.1 151.143C149.787 145.148 152.56 137.279 151.112 130.042C150.219 125.577 146.793 116.899 141.667 105.745C136.63 94.7833 130.191 81.9315 123.606 69.3784C117.025 56.8299 110.322 44.6254 104.768 34.9659C99.0992 25.1072 94.8849 18.3618 93.1903 16.3284C91.1529 13.8835 89.5897 12.4117 87.9166 11.4783ZM80.9999 145.078C83.6086 147.902 87.3165 151.647 91.7365 155.359C99.3502 161.753 109.853 168.72 120.941 169.829C132.875 171.022 143.898 165.885 151.354 158.026C158.786 150.192 163.132 139.148 160.918 128.08C159.758 122.279 155.801 112.553 150.754 101.57C145.618 90.3948 139.094 77.3769 132.462 64.7335C125.828 52.0854 119.063 39.7664 113.437 29.9812C107.925 20.3952 103.246 12.7746 100.873 9.92658C98.5792 7.1746 96.0746 4.57856 92.7885 2.74535C89.4128 0.862094 85.6071 -0.00476654 80.9947 1.97081e-05C76.3888 0.0047994 72.5874 0.870859 69.2141 2.74996C65.9281 4.58043 63.4231 7.1716 61.1273 9.92658L61.0103 10.067L60.9038 10.2156C50.9337 24.1325 36.8353 49.4524 24.9015 73.094C18.9136 84.9565 13.4228 96.4913 9.21969 106.083C5.09683 115.492 1.99651 123.507 1.08183 128.08C-1.13178 139.148 3.21433 150.192 10.6456 158.026C18.1016 165.885 29.1245 171.022 41.0589 169.829C52.1471 168.72 62.6496 161.753 70.2634 155.359C74.6834 151.647 78.3913 147.902 80.9999 145.078ZM80.9999 129.946C92.8233 116.365 115.215 77.3189 83.7601 73.2138C81.9211 72.9738 80.0804 72.9736 78.2397 73.2138C46.7845 77.3189 69.1766 116.365 80.9999 129.946Z" fill="white"/>
</svg>
