<svg width="170" height="178" viewBox="0 0 170 178" fill="none" xmlns="http://www.w3.org/2000/svg">
<g filter="url(#filter0_d_320_897)">
<path fill-rule="evenodd" clip-rule="evenodd" d="M91.9166 11.4783C90.3333 10.595 88.2886 9.99661 85.0051 10C81.7152 10.0034 79.6663 10.6026 78.0805 11.486C76.4393 12.4002 74.9041 13.8306 72.9254 16.1898C63.4366 29.4757 49.685 54.112 37.8287 77.6002C31.8991 89.347 26.491 100.713 22.379 110.097C18.1866 119.664 15.5555 126.702 14.8876 130.042C13.4402 137.279 16.2128 145.148 21.9003 151.143C27.5631 157.112 35.6591 160.719 44.0638 159.878C52.026 159.082 60.5738 153.797 67.8323 147.701C72.2845 143.962 75.9596 140.169 78.3464 137.537C60.6909 117.522 39.7519 68.674 80.9456 63.2979C83.6491 62.9451 86.3508 62.9451 89.0542 63.2979C130.248 68.674 109.309 117.522 91.6535 137.537C94.0402 140.169 97.7154 143.962 102.168 147.701C109.426 153.797 117.974 159.082 125.936 159.878C134.341 160.719 142.437 157.112 148.1 151.143C153.787 145.148 156.56 137.279 155.112 130.042C154.219 125.577 150.793 116.899 145.667 105.745C140.63 94.7833 134.191 81.9315 127.606 69.3784C121.025 56.8299 114.322 44.6254 108.768 34.9659C103.099 25.1072 98.8849 18.3618 97.1903 16.3284C95.1529 13.8835 93.5897 12.4117 91.9166 11.4783ZM84.9999 145.078C87.6086 147.902 91.3165 151.647 95.7365 155.359C103.35 161.753 113.853 168.72 124.941 169.829C136.875 171.022 147.898 165.885 155.354 158.026C162.786 150.192 167.132 139.148 164.918 128.08C163.758 122.279 159.801 112.553 154.754 101.57C149.618 90.3948 143.094 77.3769 136.462 64.7335C129.828 52.0854 123.063 39.7664 117.437 29.9812C111.925 20.3952 107.246 12.7746 104.873 9.92658C102.579 7.1746 100.075 4.57856 96.7885 2.74535C93.4128 0.862094 89.6071 -0.00476654 84.9947 1.97081e-05C80.3888 0.0047994 76.5874 0.870859 73.2141 2.74996C69.9281 4.58043 67.4231 7.1716 65.1273 9.92658L65.0103 10.067L64.9038 10.2156C54.9337 24.1325 40.8353 49.4524 28.9015 73.094C22.9136 84.9565 17.4228 96.4913 13.2197 106.083C9.09683 115.492 5.99651 123.507 5.08183 128.08C2.86822 139.148 7.21433 150.192 14.6456 158.026C22.1016 165.885 33.1245 171.022 45.0589 169.829C56.1471 168.72 66.6496 161.753 74.2634 155.359C78.6834 151.647 82.3913 147.902 84.9999 145.078ZM84.9999 129.946C96.8233 116.365 119.215 77.3189 87.7601 73.2138C85.9211 72.9738 84.0804 72.9736 82.2397 73.2138C50.7845 77.3189 73.1766 116.365 84.9999 129.946Z" fill="white"/>
</g>
<defs>
<filter id="filter0_d_320_897" x="0.503662" y="0" width="168.992" height="178.001" filterUnits="userSpaceOnUse" color-interpolation-filters="sRGB">
<feFlood flood-opacity="0" result="BackgroundImageFix"/>
<feColorMatrix in="SourceAlpha" type="matrix" values="0 0 0 0 0 0 0 0 0 0 0 0 0 0 0 0 0 0 127 0" result="hardAlpha"/>
<feOffset dy="4"/>
<feGaussianBlur stdDeviation="2"/>
<feComposite in2="hardAlpha" operator="out"/>
<feColorMatrix type="matrix" values="0 0 0 0 0 0 0 0 0 0 0 0 0 0 0 0 0 0 0.25 0"/>
<feBlend mode="normal" in2="BackgroundImageFix" result="effect1_dropShadow_320_897"/>
<feBlend mode="normal" in="SourceGraphic" in2="effect1_dropShadow_320_897" result="shape"/>
</filter>
</defs>
</svg>
